HIERARCHY
ROOT Hips
{
	OFFSET 0.000000 0.000000 0.000000
	CHANNELS 6 Xposition Yposition Zposition Zrotation Yrotation Xrotation 
	JOINT LowerBack
	{
		OFFSET 0.000000 0.000000 0.000000
		CHANNELS 3 Zrotation Yrotation Xrotation
		JOINT Spine
		{
			OFFSET 0.028270 2.035590 -0.193380
			CHANNELS 3 Zrotation Yrotation Xrotation
			JOINT Spine1
			{
				OFFSET 0.056720 2.048850 -0.042750
				CHANNELS 3 Zrotation Yrotation Xrotation
				JOINT Neck
				{
					OFFSET 0.000000 0.000000 0.000000
					CHANNELS 3 Zrotation Yrotation Xrotation
					JOINT Neck1
					{
						OFFSET -0.054170 1.746240 0.172020
						CHANNELS 3 Zrotation Yrotation Xrotation
						JOINT Head
						{
							OFFSET 0.104070 1.761360 -0.123970
							CHANNELS 3 Zrotation Yrotation Xrotation
							End Site
							{
								OFFSET 0.000000 0.000000 0.000000
							}
						}
					}
				}
				JOINT LeftShoulder
				{
					OFFSET 0.000000 0.000000 0.000000
					CHANNELS 3 Zrotation Yrotation Xrotation
					JOINT LeftArm
					{
						OFFSET 3.362410 1.200890 -0.311210
						CHANNELS 3 Zrotation Yrotation Xrotation
						JOINT LeftForeArm
						{
							OFFSET 4.983000 -0.000000 -0.000000
							CHANNELS 3 Zrotation Yrotation Xrotation
							JOINT LeftHand
							{
								OFFSET 3.483560 -0.000000 -0.000000
								CHANNELS 3 Zrotation Yrotation Xrotation
								JOINT LeftFingerBase
								{
									OFFSET 0.000000 0.000000 0.000000
									CHANNELS 3 Zrotation Yrotation Xrotation
									JOINT LeftHandIndex1
									{
										OFFSET 0.715260 -0.000000 -0.000000
										CHANNELS 3 Zrotation Yrotation Xrotation
										End Site
										{
											OFFSET 0.000000 0.000000 0.000000
										}
									}
								}
								JOINT LThumb
								{
									OFFSET 0.000000 0.000000 0.000000
									CHANNELS 3 Zrotation Yrotation Xrotation
									End Site
									{
										OFFSET 0.000000 0.000000 0.000000
									}
								}
							}
						}
					}
				}
				JOINT RightShoulder
				{
					OFFSET 0.000000 0.000000 0.000000
					CHANNELS 3 Zrotation Yrotation Xrotation
					JOINT RightArm
					{
						OFFSET -3.136600 1.374050 -0.404650
						CHANNELS 3 Zrotation Yrotation Xrotation
						JOINT RightForeArm
						{
							OFFSET -5.241900 -0.000000 -0.000000
							CHANNELS 3 Zrotation Yrotation Xrotation
							JOINT RightHand
							{
								OFFSET -3.444170 -0.000000 -0.000000
								CHANNELS 3 Zrotation Yrotation Xrotation
								JOINT RightFingerBase
								{
									OFFSET 0.000000 0.000000 0.000000
									CHANNELS 3 Zrotation Yrotation Xrotation
									JOINT RightHandIndex1
									{
										OFFSET -0.622530 -0.000000 -0.000000
										CHANNELS 3 Zrotation Yrotation Xrotation
										End Site
										{
											OFFSET 0.000000 0.000000 0.000000
										}
									}
								}
								JOINT RThumb
								{
									OFFSET 0.000000 0.000000 0.000000
									CHANNELS 3 Zrotation Yrotation Xrotation
									End Site
									{
										OFFSET 0.000000 0.000000 0.000000
									}
								}
							}
						}
					}
				}
			}
		}
	}
}
}
MOTION
Frames: 15
Frame Time: 0.008333
-11.796426 17.247318 0.339567 152.030440 86.196299 154.192306 2.470691 -5.922851 -5.080343 0.306942 -6.272463 -2.864840 -5.261133 -6.250786 3.967463 10.291858 -22.575520 -11.497007 -2.062686 -0.105258 -0.943090 0.000000 0.000000 0.000000 5.274569 15.192372 1.779719 -30.449393 -2.527284 -6.953236 -1.871630 -49.861651 0.005314 -0.506373 -0.521946 0.003728 -0.110015 0.210351 0.000000 0.000000 0.000000 0.000000 0.000000 0.000000 0.000000 16.485581 -21.506716 -0.342199 70.948531 -14.464769 -19.972672 4.736248 18.358772 0.001688 8.046289 -0.609031 -0.041026 0.087279 -0.014795 -0.000000 0.000000 0.000000 0.000000 0.000000 0.000000 0.000000 
-11.631934 17.249798 0.374622 153.902097 86.332491 156.003350 2.710295 -5.821521 -5.039663 0.342846 -6.188947 -2.874801 -5.286282 -6.167100 3.925675 10.359559 -22.459105 -11.525593 -2.073374 -0.106038 -0.951343 0.000000 0.000000 0.000000 5.216935 15.154765 1.775928 -31.045796 -2.112030 -6.872476 -1.920282 -49.626452 0.005492 -0.523108 -0.573590 0.004047 -0.112755 0.204906 0.000000 0.000000 0.000000 0.000000 0.000000 0.000000 0.000000 16.517261 -21.313642 -0.313300 70.398235 -13.658731 -19.852302 4.710057 18.250414 0.002258 7.776536 -0.427226 -0.027213 0.088628 -0.017369 -0.000000 0.000000 0.000000 0.000000 0.000000 0.000000 0.000000 
-11.471035 17.251303 0.409556 155.666200 86.472771 157.704038 2.928412 -5.721680 -4.965947 0.373362 -6.104410 -2.878301 -5.311810 -6.082603 3.882537 10.434671 -22.322373 -11.556119 -2.081973 -0.106527 -0.960375 0.000000 0.000000 0.000000 5.166561 15.112975 1.774106 -31.675184 -1.664368 -6.774179 -1.973387 -49.346470 0.005635 -0.530172 -0.626304 0.004263 -0.115724 0.199092 -0.000000 0.000000 0.000000 0.000000 0.000000 0.000000 0.000000 16.540807 -21.102882 -0.278668 69.859601 -12.761594 -19.684325 4.681447 18.126208 0.002821 7.496043 -0.243183 -0.014101 0.089938 -0.020006 -0.000000 0.000000 0.000000 0.000000 0.000000 0.000000 0.000000 
-11.313700 17.251895 0.444626 157.224341 86.603613 159.193034 3.111778 -5.625887 -4.858856 0.395512 -6.020341 -2.875074 -5.338752 -5.998744 3.836867 10.515870 -22.158746 -11.584491 -2.091194 -0.107021 -0.969093 0.000000 0.000000 0.000000 5.126129 15.061106 1.774477 -32.328796 -1.188707 -6.646808 -2.031204 -49.013617 0.005740 -0.526565 -0.679276 0.004379 -0.118919 0.192819 0.000000 0.000000 0.000000 0.000000 0.000000 0.000000 0.000000 16.565559 -20.868009 -0.240621 69.337852 -11.800016 -19.481371 4.649318 18.020987 0.003356 7.208452 -0.066867 -0.002388 0.091151 -0.022673 -0.000000 0.000000 0.000000 0.000000 0.000000 0.000000 0.000000 
-11.159721 17.251805 0.479698 158.633558 86.718727 160.528900 3.263249 -5.535244 -4.723856 0.410348 -5.938106 -2.866033 -5.365968 -5.916883 3.789594 10.597259 -21.974467 -11.608401 -2.101489 -0.107605 -0.976842 0.000000 0.000000 0.000000 5.090337 14.998588 1.776341 -33.001290 -0.692258 -6.480513 -2.093896 -48.621526 0.005803 -0.512766 -0.727713 0.004393 -0.122324 0.185982 -0.000000 0.000000 0.000000 0.000000 0.000000 0.000000 0.000000 16.589200 -20.616880 -0.201195 68.829560 -10.777207 -19.225430 4.613522 17.936653 0.003890 6.904816 0.118554 0.008924 0.092322 -0.025434 -0.000000 0.000000 0.000000 0.000000 0.000000 0.000000 0.000000 
-11.008735 17.251336 0.514787 159.902795 86.810624 161.721285 3.382287 -5.450127 -4.566498 0.417929 -5.858159 -2.852206 -5.393250 -5.837434 3.740806 10.674234 -21.771295 -11.624183 -2.114307 -0.108477 -0.982589 0.000000 0.000000 0.000000 5.056677 14.922187 1.778736 -33.688875 -0.181484 -6.265794 -2.161576 -48.164132 0.005817 -0.489057 -0.767816 0.004305 -0.125917 0.178479 0.000000 0.000000 0.000000 0.000000 0.000000 0.000000 0.000000 16.613618 -20.351894 -0.162529 68.331989 -9.707393 -18.914451 4.573954 17.883608 0.004435 6.581860 0.319957 0.020036 0.093475 -0.028311 -0.000000 0.000000 0.000000 0.000000 0.000000 0.000000 0.000000 
-10.860388 17.250864 0.549797 161.047207 86.874331 162.785834 3.470101 -5.369963 -4.393500 0.418516 -5.780221 -2.835063 -5.420946 -5.760057 3.689920 10.742023 -21.545461 -11.627007 -2.131538 -0.109896 -0.984973 0.000000 0.000000 0.000000 5.023595 14.828587 1.780660 -34.389548 0.338581 -5.994261 -2.234326 -47.636957 0.005779 -0.456707 -0.796173 0.004112 -0.129669 0.170222 0.000000 0.000000 0.000000 0.000000 0.000000 0.000000 0.000000 16.640378 -20.068855 -0.126630 67.844672 -8.611471 -18.565692 4.530849 17.873485 0.004993 6.242382 0.539823 0.031050 0.094608 -0.031328 -0.000000 0.000000 0.000000 0.000000 0.000000 0.000000 0.000000 
-10.714254 17.250768 0.584732 162.057637 86.906527 163.714620 3.527214 -5.293512 -4.210950 0.412421 -5.703274 -2.815691 -5.448507 -5.683734 3.637559 10.797340 -21.302648 -11.613954 -2.153749 -0.111972 -0.983134 0.000000 0.000000 0.000000 4.990082 14.716480 1.780426 -35.103722 0.862257 -5.660216 -2.311850 -47.038009 0.005694 -0.417659 -0.809625 0.003717 -0.133519 0.161171 -0.000000 0.000000 0.000000 0.000000 0.000000 0.000000 0.000000 16.670134 -19.773723 -0.094968 67.361118 -7.498969 -18.168079 4.484387 17.909382 0.005569 5.881931 0.784155 0.041763 0.095773 -0.034476 -0.000000 0.000000 0.000000 0.000000 0.000000 0.000000 0.000000 
-10.569875 17.251445 0.619500 162.923962 86.907807 164.498155 3.555396 -5.218883 -4.025116 0.400130 -5.625762 -2.795354 -5.475639 -5.606904 3.583914 10.836999 -21.044203 -11.581820 -2.181452 -0.114815 -0.976139 0.000000 0.000000 0.000000 4.955454 14.585790 1.776543 -35.833012 1.385946 -5.260632 -2.393755 -46.368208 0.005559 -0.375736 -0.805283 0.003319 -0.137394 0.151315 -0.000000 0.000000 0.000000 0.000000 0.000000 0.000000 0.000000 16.701958 -19.467255 -0.068572 66.877729 -6.382665 -17.727611 4.435111 17.993249 0.006158 5.502032 1.053864 0.051879 0.096993 -0.037750 -0.000000 0.000000 0.000000 0.000000 0.000000 0.000000 0.000000 
-10.426839 17.253234 0.654074 163.599749 86.880562 165.090528 3.554594 -5.143965 -3.841148 0.381422 -5.545786 -2.775361 -5.503265 -5.527651 3.527834 10.858781 -20.757322 -11.525741 -2.216144 -0.118639 -0.962636 0.000000 0.000000 0.000000 4.921781 14.438590 1.768512 -36.580024 1.906124 -4.796814 -2.479969 -45.629365 0.005388 -0.338365 -0.781316 0.002916 -0.141220 0.140682 -0.000000 0.000000 0.000000 0.000000 0.000000 0.000000 0.000000 16.735973 -19.134218 -0.048395 66.396180 -5.292670 -17.285317 4.383772 18.139166 0.006749 5.118513 1.338474 0.060894 0.098198 -0.041123 -0.000000 0.000000 0.000000 0.000000 0.000000 0.000000 0.000000 
-10.284753 17.256384 0.688263 164.119407 86.835185 165.528700 3.532036 -5.065885 -3.664672 0.358488 -5.461098 -2.756511 -5.528664 -5.443821 3.471795 10.859982 -20.462274 -11.447641 -2.254666 -0.123147 -0.943082 0.000000 0.000000 0.000000 4.882967 14.279245 1.754273 -37.346805 2.425997 -4.271233 -2.569151 -44.833491 0.005175 -0.310539 -0.734063 0.002509 -0.144890 0.129336 -0.000000 0.000000 0.000000 0.000000 0.000000 0.000000 0.000000 16.761795 -18.795735 -0.033556 65.908162 -4.208659 -16.804212 4.331119 18.322840 0.007350 4.719799 1.647583 0.068711 0.099512 -0.044600 -0.000000 0.000000 0.000000 0.000000 0.000000 0.000000 0.000000 
-10.143295 17.261045 0.721968 164.440010 86.781376 165.770632 3.489302 -4.982296 -3.498788 0.331876 -5.369552 -2.739233 -5.550972 -5.353316 3.416828 10.840282 -20.162482 -11.348244 -2.295574 -0.128200 -0.917672 0.000000 0.000000 0.000000 4.837554 14.116239 1.733160 -38.134338 2.944227 -3.690523 -2.660511 -43.989964 0.004924 -0.300072 -0.662504 0.002298 -0.148317 0.117394 -0.000000 0.000000 0.000000 0.000000 0.000000 0.000000 0.000000 16.774699 -18.453939 -0.023597 65.412891 -3.132403 -16.288388 4.277877 18.540551 0.007951 4.311594 1.974617 0.074829 0.100939 -0.048152 -0.000000 0.000000 0.000000 0.000000 0.000000 0.000000 0.000000 
-10.002306 17.267265 0.755266 164.452494 86.726599 165.705952 3.421984 -4.891973 -3.343942 0.300396 -5.269684 -2.724015 -5.571404 -5.254687 3.361092 10.800561 -19.836404 -11.224691 -2.339617 -0.133892 -0.885690 0.000000 0.000000 0.000000 4.789213 13.958185 1.706515 -38.944529 3.461035 -3.066979 -2.754077 -43.107548 0.004644 -0.319796 -0.565905 0.002282 -0.151434 0.104994 0.000000 0.000000 0.000000 0.000000 0.000000 0.000000 0.000000 16.773212 -18.083494 -0.018471 64.916813 -2.097430 -15.794123 4.224778 18.811268 0.008534 3.922322 2.301115 0.078947 0.102303 -0.051746 -0.000000 0.000000 0.000000 0.000000 0.000000 0.000000 0.000000 
-9.861583 17.274930 0.787978 164.158809 86.685070 165.338357 3.335769 -4.792918 -3.200954 0.265733 -5.159881 -2.710759 -5.587981 -5.146382 3.306494 10.740635 -19.495940 -11.081735 -2.383448 -0.139850 -0.848461 0.000000 0.000000 0.000000 4.731643 13.816340 1.674280 -39.775379 3.978974 -2.411706 -2.848748 -42.202298 0.004319 -0.376451 -0.443105 0.002260 -0.154182 0.092294 0.000000 0.000000 0.000000 0.000000 0.000000 0.000000 0.000000 16.747267 -17.695640 -0.016608 64.419392 -1.087824 -15.306896 4.172424 19.121232 0.009099 3.552906 2.625374 0.081163 0.103626 -0.055381 -0.000000 0.000000 0.000000 0.000000 0.000000 0.000000 0.000000 
-9.721085 17.283852 0.820096 163.471620 86.665421 164.580454 3.228480 -4.684988 -3.068389 0.227868 -5.039796 -2.698830 -5.599393 -5.028103 3.254542 10.662863 -19.147226 -10.924224 -2.424493 -0.145763 -0.807363 0.000000 0.000000 0.000000 4.662299 13.703635 1.637181 -40.624650 4.498199 -1.738266 -2.943849 -41.287711 0.003932 -0.476999 -0.294126 0.002234 -0.156521 0.079473 0.000000 0.000000 0.000000 0.000000 0.000000 0.000000 0.000000 16.691901 -17.295784 -0.017016 63.920922 -0.093819 -14.815854 4.121096 19.464174 0.009646 3.208326 2.943806 0.081881 0.104887 -0.059046 -0.000000 0.000000 0.000000 0.000000 0.000000 0.000000 0.000000 
